<svg width="143" height="60" viewBox="0 0 143 60" fill="none" xmlns="http://www.w3.org/2000/svg">
<g clip-path="url(#clip0_45_37)">
<path d="M19.5419 12.4929L26.0893 25.821L32.6081 12.4929H37.1905V33.272H33.5618L33.5332 18.4272L27.373 31.1329H24.7841L18.6239 18.4272V33.272H14.9343V12.4929H19.5455H19.5419Z" fill="#231F20"/>
<path d="M61.9711 28.8794H51.795L49.9483 33.272H45.8105L54.9468 12.4929H59.0846L68.1026 33.272H63.8177L61.9711 28.8794ZM60.5404 25.4633L56.9117 16.7353L53.2221 25.4633H60.544H60.5404Z" fill="#231F20"/>
<path d="M95.6871 12.4929V15.283L83.4277 29.7987H95.8377V33.272H78.0421V30.4533L90.3015 15.9662H78.397L78.4257 12.4929H95.6871Z" fill="#231F20"/>
<path d="M121.938 28.8794H111.762L109.915 33.272H105.777L114.913 12.4929H119.051L128.069 33.272H123.784L121.938 28.8794ZM120.511 25.4633L116.882 16.7353L113.192 25.4633H120.514H120.511Z" fill="#231F20"/>
<path d="M139.414 4.31929V41.3597H3.58567V4.31929H139.414ZM143 0.742233H0V44.9368H143V0.742233Z" fill="#231F20"/>
<path d="M40.3674 55.9327C40.3674 58.1004 38.7216 59.6887 36.4411 59.6887H33.3861V52.1768H36.4734C38.7324 52.1768 40.3674 53.7543 40.3674 55.9327ZM39.0874 55.9435C39.0874 54.4089 37.9364 53.3143 36.4519 53.3143H34.6555V58.5512H36.5057C37.9686 58.5512 39.0874 57.4673 39.0874 55.9435Z" fill="#231F20"/>
<path d="M52.0065 55.9327C52.0065 58.0789 50.2639 59.7422 48.0157 59.7422C45.7674 59.7422 44.0248 58.0789 44.0248 55.9327C44.0248 53.7864 45.7674 52.1446 48.0157 52.1446C50.2639 52.1446 52.0065 53.7864 52.0065 55.9327ZM45.3157 55.9327C45.3157 57.4243 46.5527 58.6047 48.0264 58.6047C49.5001 58.6047 50.7049 57.4243 50.7049 55.9327C50.7049 54.441 49.5001 53.2821 48.0264 53.2821C46.5527 53.2821 45.3157 54.441 45.3157 55.9327Z" fill="#231F20"/>
<path d="M61.4404 55.9971H62.5484V58.7657C61.7846 59.3452 60.6552 59.7422 59.6225 59.7422C57.3958 59.7422 55.6639 58.0789 55.6639 55.9327C55.6639 53.7864 57.4173 52.1446 59.6978 52.1446C60.7735 52.1446 61.8492 52.5523 62.5914 53.1962L61.8707 54.1298C61.2898 53.5933 60.483 53.2713 59.6978 53.2713C58.1595 53.2713 56.9547 54.441 56.9547 55.9327C56.9547 57.4243 58.1703 58.6047 59.7085 58.6047C60.2679 58.6047 60.9026 58.4116 61.4404 58.0896V55.9971Z" fill="#231F20"/>
<path d="M67.9806 52.1768L69.8093 58.2829L71.6273 52.1768H72.8751L74.7038 58.2829L76.5217 52.1768H77.8341L75.3169 59.6887H74.0153L72.2297 53.8294L70.4225 59.6887H69.1101L66.6145 52.1768H67.9806Z" fill="#231F20"/>
<path d="M87.3217 52.1768V53.3143H83.2126V55.3533H86.8915V56.48H83.2126V58.5512H87.4508V59.6887H81.9432V52.1768H87.3217Z" fill="#231F20"/>
<path d="M97.0891 57.9931H93.2919L92.5712 59.6887H91.248L94.572 52.1768H95.8736L99.1652 59.6887H97.8098L97.0891 57.9931ZM96.605 56.8664L95.1851 53.529L93.7652 56.8664H96.605Z" fill="#231F20"/>
<path d="M108.169 59.6887L106.792 57.4136C106.684 57.4244 106.566 57.4244 106.448 57.4244H104.662V59.6887H103.393V52.1768H106.448C108.373 52.1768 109.481 53.1104 109.481 54.7416C109.481 55.9435 108.922 56.7912 107.921 57.1776L109.61 59.6887H108.169ZM106.448 56.2869C107.609 56.2869 108.276 55.7932 108.276 54.7738C108.276 53.7543 107.609 53.3143 106.448 53.3143H104.662V56.2869H106.448Z" fill="#231F20"/>
<path d="M20.0331 55.9434C20.0331 56.7625 20.6965 57.4243 21.5176 57.4243C22.3387 57.4243 23.002 56.7625 23.002 55.9434C23.002 55.1243 22.3387 54.4625 21.5176 54.4625C20.6965 54.4625 20.0331 55.1243 20.0331 55.9434Z" fill="#333333"/>
<path d="M119.994 55.9434C119.994 56.7625 120.658 57.4243 121.479 57.4243C122.3 57.4243 122.963 56.7625 122.963 55.9434C122.963 55.1243 122.3 54.4625 121.479 54.4625C120.658 54.4625 119.994 55.1243 119.994 55.9434Z" fill="#333333"/>
</g>
<defs>
<clipPath id="clip0_45_37">
<rect width="143" height="59" fill="white" transform="translate(0 0.742233)"/>
</clipPath>
</defs>
</svg>
